<mxfile host="65bd71144e">
    <diagram id="gfpigJGCL8oSZa6FFQkx" name="Page-1">
        <mxGraphModel dx="2653" dy="2051" grid="1" gridSize="10" guides="1" tooltips="1" connect="1" arrows="1" fold="1" page="1" pageScale="1" pageWidth="827" pageHeight="1169" background="#FFFFFF" math="0" shadow="0">
            <root>
                <mxCell id="0"/>
                <mxCell id="1" parent="0"/>
                <mxCell id="2" value="" style="rounded=0;whiteSpace=wrap;html=1;fillColor=#bac8d3;strokeColor=#23445d;" parent="1" vertex="1">
                    <mxGeometry x="-340" width="820" height="1690" as="geometry"/>
                </mxCell>
                <mxCell id="3" value="" style="rounded=0;whiteSpace=wrap;html=1;fillColor=#dae8fc;strokeColor=#6c8ebf;" parent="1" vertex="1">
                    <mxGeometry x="-340" width="820" height="70" as="geometry"/>
                </mxCell>
                <mxCell id="148" style="edgeStyle=none;html=1;entryX=1;entryY=0.5;entryDx=0;entryDy=0;exitX=0.001;exitY=0.145;exitDx=0;exitDy=0;exitPerimeter=0;" parent="1" source="18" target="146" edge="1">
                    <mxGeometry relative="1" as="geometry">
                        <mxPoint x="-330" y="100" as="sourcePoint"/>
                    </mxGeometry>
                </mxCell>
                <mxCell id="18" value="&lt;font style=&quot;font-size: 27px;&quot;&gt;&amp;nbsp; &amp;nbsp; &amp;nbsp; &amp;nbsp; &amp;nbsp; &amp;nbsp; &lt;span style=&quot;white-space: pre;&quot;&gt;&#9;&lt;/span&gt;&lt;span style=&quot;white-space: pre;&quot;&gt;&#9;&lt;span style=&quot;white-space: pre;&quot;&gt;&#9;&lt;/span&gt;&lt;span style=&quot;white-space: pre;&quot;&gt;&#9;&lt;/span&gt;&lt;/span&gt;Image of new product&lt;/font&gt;" style="rounded=0;whiteSpace=wrap;html=1;fillColor=#e1d5e7;strokeColor=#9673a6;align=center;fillStyle=auto;" parent="1" vertex="1">
                    <mxGeometry x="-340" y="70" width="820" height="200" as="geometry"/>
                </mxCell>
                <mxCell id="151" style="edgeStyle=none;html=1;entryX=1.021;entryY=0.617;entryDx=0;entryDy=0;entryPerimeter=0;" parent="1" target="149" edge="1">
                    <mxGeometry relative="1" as="geometry">
                        <mxPoint x="-310" y="177" as="sourcePoint"/>
                    </mxGeometry>
                </mxCell>
                <mxCell id="194" style="edgeStyle=none;html=1;exitX=0;exitY=1;exitDx=0;exitDy=0;entryX=0.917;entryY=0.433;entryDx=0;entryDy=0;entryPerimeter=0;" edge="1" parent="1" source="19" target="191">
                    <mxGeometry relative="1" as="geometry"/>
                </mxCell>
                <mxCell id="199" style="edgeStyle=none;html=1;exitX=0;exitY=0.5;exitDx=0;exitDy=0;" edge="1" parent="1" source="19">
                    <mxGeometry relative="1" as="geometry">
                        <mxPoint x="-370" y="210" as="targetPoint"/>
                        <Array as="points">
                            <mxPoint x="-290" y="175"/>
                            <mxPoint x="-290" y="210"/>
                        </Array>
                    </mxGeometry>
                </mxCell>
                <mxCell id="19" value="" style="rounded=0;whiteSpace=wrap;html=1;" parent="1" vertex="1">
                    <mxGeometry x="-250" y="110" width="230" height="130" as="geometry"/>
                </mxCell>
                <mxCell id="196" style="edgeStyle=none;html=1;entryX=1;entryY=0.5;entryDx=0;entryDy=0;exitX=0;exitY=0.5;exitDx=0;exitDy=0;" edge="1" parent="1" source="20" target="195">
                    <mxGeometry relative="1" as="geometry">
                        <Array as="points">
                            <mxPoint x="-370" y="135"/>
                            <mxPoint x="-370" y="315"/>
                        </Array>
                    </mxGeometry>
                </mxCell>
                <mxCell id="20" value="New product name" style="rounded=0;whiteSpace=wrap;html=1;fillColor=#d5e8d4;strokeColor=#82b366;" parent="1" vertex="1">
                    <mxGeometry x="-245" y="120" width="220" height="30" as="geometry"/>
                </mxCell>
                <mxCell id="21" value="Lunch date" style="rounded=0;whiteSpace=wrap;html=1;fillColor=#d5e8d4;strokeColor=#82b366;" parent="1" vertex="1">
                    <mxGeometry x="-245" y="155" width="220" height="30" as="geometry"/>
                </mxCell>
                <mxCell id="200" style="edgeStyle=none;html=1;" edge="1" parent="1">
                    <mxGeometry relative="1" as="geometry">
                        <mxPoint x="-370" y="220" as="targetPoint"/>
                        <mxPoint x="-250" y="220" as="sourcePoint"/>
                    </mxGeometry>
                </mxCell>
                <mxCell id="23" value="More details&lt;br style=&quot;border-color: var(--border-color);&quot;&gt;product" style="rounded=1;whiteSpace=wrap;html=1;fillColor=#60a917;fontColor=#ffffff;strokeColor=#2D7600;" parent="1" vertex="1">
                    <mxGeometry x="-245" y="200" width="70" height="30" as="geometry"/>
                </mxCell>
                <mxCell id="24" value="" style="rounded=0;whiteSpace=wrap;html=1;fillStyle=auto;fontSize=27;fillColor=#fff2cc;strokeColor=#d6b656;gradientColor=#ffd966;" parent="1" vertex="1">
                    <mxGeometry x="-329.37" y="7.5" width="436" height="52.5" as="geometry"/>
                </mxCell>
                <mxCell id="143" style="edgeStyle=none;html=1;entryX=1;entryY=0.5;entryDx=0;entryDy=0;fontColor=#000000;" parent="1" source="25" target="142" edge="1">
                    <mxGeometry relative="1" as="geometry"/>
                </mxCell>
                <mxCell id="25" value="Icon" style="rounded=1;whiteSpace=wrap;html=1;fillColor=#ffe6cc;strokeColor=#d79b00;" parent="1" vertex="1">
                    <mxGeometry x="-320" y="13.75" width="40" height="40" as="geometry"/>
                </mxCell>
                <mxCell id="126" style="edgeStyle=none;html=1;fontColor=#000000;entryX=0.5;entryY=1;entryDx=0;entryDy=0;" parent="1" source="26" target="124" edge="1">
                    <mxGeometry relative="1" as="geometry">
                        <mxPoint x="40" y="-30" as="targetPoint"/>
                        <Array as="points">
                            <mxPoint x="-242" y="-60"/>
                            <mxPoint x="-100" y="-60"/>
                            <mxPoint x="41" y="-60"/>
                        </Array>
                    </mxGeometry>
                </mxCell>
                <mxCell id="26" value="Store" style="text;html=1;strokeColor=#d79b00;fillColor=#ffe6cc;align=center;verticalAlign=middle;whiteSpace=wrap;rounded=0;" parent="1" vertex="1">
                    <mxGeometry x="-262.5" y="20" width="40" height="30" as="geometry"/>
                </mxCell>
                <mxCell id="127" style="edgeStyle=none;html=1;exitX=0.5;exitY=0;exitDx=0;exitDy=0;fontColor=#000000;" parent="1" source="27" edge="1">
                    <mxGeometry relative="1" as="geometry">
                        <mxPoint x="-195" y="-60" as="targetPoint"/>
                    </mxGeometry>
                </mxCell>
                <mxCell id="27" value="Phone" style="text;html=1;strokeColor=#d79b00;fillColor=#ffe6cc;align=center;verticalAlign=middle;whiteSpace=wrap;rounded=0;" parent="1" vertex="1">
                    <mxGeometry x="-215" y="20" width="40" height="30" as="geometry"/>
                </mxCell>
                <mxCell id="131" style="edgeStyle=none;html=1;fontColor=#000000;" parent="1" source="28" edge="1">
                    <mxGeometry relative="1" as="geometry">
                        <mxPoint x="-115" y="-60" as="targetPoint"/>
                    </mxGeometry>
                </mxCell>
                <mxCell id="28" value="TV &amp;amp; Smart Home" style="text;html=1;strokeColor=#d79b00;fillColor=#ffe6cc;align=center;verticalAlign=middle;whiteSpace=wrap;rounded=0;" parent="1" vertex="1">
                    <mxGeometry x="-165" y="20" width="100" height="30" as="geometry"/>
                </mxCell>
                <mxCell id="132" style="edgeStyle=none;html=1;exitX=0.5;exitY=0;exitDx=0;exitDy=0;fontColor=#000000;" parent="1" source="29" edge="1">
                    <mxGeometry relative="1" as="geometry">
                        <mxPoint x="-15" y="-60" as="targetPoint"/>
                    </mxGeometry>
                </mxCell>
                <mxCell id="29" value="Laptop &amp;amp; Tablet" style="text;html=1;strokeColor=#d79b00;fillColor=#ffe6cc;align=center;verticalAlign=middle;whiteSpace=wrap;rounded=0;" parent="1" vertex="1">
                    <mxGeometry x="-60" y="20" width="90" height="30" as="geometry"/>
                </mxCell>
                <mxCell id="133" style="edgeStyle=none;html=1;exitX=0.5;exitY=0;exitDx=0;exitDy=0;fontColor=#000000;" parent="1" source="30" edge="1">
                    <mxGeometry relative="1" as="geometry">
                        <mxPoint x="70" y="-60" as="targetPoint"/>
                    </mxGeometry>
                </mxCell>
                <mxCell id="30" value="Life Style" style="text;html=1;strokeColor=#d79b00;fillColor=#ffe6cc;align=center;verticalAlign=middle;whiteSpace=wrap;rounded=0;" parent="1" vertex="1">
                    <mxGeometry x="37.5" y="20" width="60" height="30" as="geometry"/>
                </mxCell>
                <mxCell id="140" style="edgeStyle=none;html=1;exitX=0.5;exitY=0;exitDx=0;exitDy=0;fontColor=#000000;" parent="1" source="31" edge="1">
                    <mxGeometry relative="1" as="geometry">
                        <mxPoint x="150" y="-20" as="targetPoint"/>
                        <Array as="points">
                            <mxPoint x="341" y="-20"/>
                        </Array>
                    </mxGeometry>
                </mxCell>
                <mxCell id="31" value="" style="rounded=0;whiteSpace=wrap;html=1;fillStyle=auto;strokeColor=#d6b656;fontSize=27;fillColor=#fff2cc;gradientColor=#ffd966;" parent="1" vertex="1">
                    <mxGeometry x="210" y="7.5" width="262.5" height="52.5" as="geometry"/>
                </mxCell>
                <mxCell id="138" style="edgeStyle=none;html=1;exitX=0.5;exitY=0;exitDx=0;exitDy=0;fontColor=#000000;" parent="1" source="32" edge="1">
                    <mxGeometry relative="1" as="geometry">
                        <mxPoint x="245" y="-60" as="targetPoint"/>
                    </mxGeometry>
                </mxCell>
                <mxCell id="32" value="Discover" style="text;html=1;strokeColor=#d79b00;fillColor=#ffe6cc;align=center;verticalAlign=middle;whiteSpace=wrap;rounded=0;" parent="1" vertex="1">
                    <mxGeometry x="220" y="20" width="50" height="30" as="geometry"/>
                </mxCell>
                <mxCell id="137" style="edgeStyle=none;html=1;exitX=0.5;exitY=0;exitDx=0;exitDy=0;fontColor=#000000;" parent="1" source="33" edge="1">
                    <mxGeometry relative="1" as="geometry">
                        <mxPoint x="305" y="-60" as="targetPoint"/>
                    </mxGeometry>
                </mxCell>
                <mxCell id="33" value="Support" style="text;html=1;strokeColor=#d79b00;fillColor=#ffe6cc;align=center;verticalAlign=middle;whiteSpace=wrap;rounded=0;" parent="1" vertex="1">
                    <mxGeometry x="280" y="20" width="50" height="30" as="geometry"/>
                </mxCell>
                <mxCell id="136" style="edgeStyle=none;html=1;exitX=0.5;exitY=0;exitDx=0;exitDy=0;fontColor=#000000;" parent="1" source="34" edge="1">
                    <mxGeometry relative="1" as="geometry">
                        <mxPoint x="360" y="-60" as="targetPoint"/>
                    </mxGeometry>
                </mxCell>
                <mxCell id="34" value="Search&lt;br style=&quot;border-color: var(--border-color);&quot;&gt;icon" style="text;html=1;strokeColor=#d79b00;fillColor=#ffe6cc;align=center;verticalAlign=middle;whiteSpace=wrap;rounded=0;" parent="1" vertex="1">
                    <mxGeometry x="340" y="20" width="40" height="30" as="geometry"/>
                </mxCell>
                <mxCell id="135" style="edgeStyle=none;html=1;fontColor=#000000;" parent="1" source="35" edge="1">
                    <mxGeometry relative="1" as="geometry">
                        <mxPoint x="405" y="-60" as="targetPoint"/>
                    </mxGeometry>
                </mxCell>
                <mxCell id="35" value="Cart&lt;br&gt;icon" style="text;html=1;strokeColor=#d79b00;fillColor=#ffe6cc;align=center;verticalAlign=middle;whiteSpace=wrap;rounded=0;" parent="1" vertex="1">
                    <mxGeometry x="390" y="20" width="30" height="30" as="geometry"/>
                </mxCell>
                <mxCell id="134" style="edgeStyle=none;html=1;exitX=0.5;exitY=0;exitDx=0;exitDy=0;fontColor=#000000;entryX=0.5;entryY=1;entryDx=0;entryDy=0;" parent="1" source="36" target="124" edge="1">
                    <mxGeometry relative="1" as="geometry">
                        <mxPoint x="40" y="-60" as="targetPoint"/>
                        <Array as="points">
                            <mxPoint x="445" y="-60"/>
                            <mxPoint x="41" y="-60"/>
                        </Array>
                    </mxGeometry>
                </mxCell>
                <mxCell id="36" value="User&lt;br&gt;icon" style="text;html=1;strokeColor=#d79b00;fillColor=#ffe6cc;align=center;verticalAlign=middle;whiteSpace=wrap;rounded=0;" parent="1" vertex="1">
                    <mxGeometry x="430" y="20" width="30" height="30" as="geometry"/>
                </mxCell>
                <mxCell id="203" style="edgeStyle=none;html=1;entryX=0;entryY=0.5;entryDx=0;entryDy=0;exitX=1;exitY=0.5;exitDx=0;exitDy=0;" edge="1" parent="1" source="38" target="202">
                    <mxGeometry relative="1" as="geometry">
                        <Array as="points">
                            <mxPoint x="510" y="370"/>
                            <mxPoint x="510" y="220"/>
                        </Array>
                    </mxGeometry>
                </mxCell>
                <mxCell id="38" value="&amp;nbsp; &amp;nbsp; &amp;nbsp; &amp;nbsp; &amp;nbsp; &amp;nbsp;&amp;nbsp;&lt;span style=&quot;white-space: pre;&quot;&gt;&#9;&lt;/span&gt;&lt;span style=&quot;white-space: pre;&quot;&gt;&#9;&lt;span style=&quot;white-space: pre;&quot;&gt;&#9;&lt;/span&gt;&lt;/span&gt;&lt;span style=&quot;border-color: var(--border-color);&quot;&gt;&#9;&lt;span style=&quot;white-space: pre;&quot;&gt;&#9;&lt;/span&gt;&amp;nbsp;&amp;nbsp;&lt;/span&gt;&lt;span style=&quot;border-color: var(--border-color);&quot;&gt;&amp;nbsp;&lt;/span&gt;Image of 2nd new product" style="rounded=0;whiteSpace=wrap;html=1;fillStyle=auto;strokeColor=#36393d;fontSize=27;fillColor=#cce5ff;" parent="1" vertex="1">
                    <mxGeometry x="-340" y="270" width="820" height="200" as="geometry"/>
                </mxCell>
                <mxCell id="39" value="" style="rounded=0;whiteSpace=wrap;html=1;fillColor=#fff2cc;strokeColor=#d6b656;" parent="1" vertex="1">
                    <mxGeometry x="-250" y="320" width="230" height="130" as="geometry"/>
                </mxCell>
                <mxCell id="40" value="&lt;h4 style=&quot;-webkit-box-orient: vertical; -webkit-line-clamp: 2; color: rgb(25, 25, 25); display: -webkit-box; font-weight: 400; margin-right: 0px; margin-bottom: 0px; margin-left: 0px; margin-top: var(--subtitle-margin-top); overflow: hidden; text-overflow: ellipsis; word-break: break-word; font-family: &amp;quot;Camphor Pro VF&amp;quot;, &amp;quot;Camphor Pro&amp;quot;, sans-serif; text-align: start; background-color: rgb(255, 255, 255);&quot; class=&quot;site-banner__subtitle&quot;&gt;&lt;font style=&quot;font-size: 10px;&quot;&gt;Special Exchange Bonus of Up to ₹7,000&lt;/font&gt;&lt;/h4&gt;" style="rounded=0;whiteSpace=wrap;html=1;" parent="1" vertex="1">
                    <mxGeometry x="-240" y="335" width="210" height="25" as="geometry"/>
                </mxCell>
                <mxCell id="216" style="edgeStyle=none;html=1;exitX=1;exitY=0.75;exitDx=0;exitDy=0;" edge="1" parent="1" source="41">
                    <mxGeometry relative="1" as="geometry">
                        <mxPoint x="-50" y="400.3333333333335" as="targetPoint"/>
                    </mxGeometry>
                </mxCell>
                <mxCell id="41" value="" style="rounded=0;whiteSpace=wrap;html=1;fontSize=10;fillColor=#dae8fc;strokeColor=#6c8ebf;" parent="1" vertex="1">
                    <mxGeometry x="-240" y="370" width="170" height="40" as="geometry"/>
                </mxCell>
                <mxCell id="223" style="edgeStyle=none;html=1;" edge="1" parent="1" source="43">
                    <mxGeometry relative="1" as="geometry">
                        <mxPoint x="-70" y="430" as="targetPoint"/>
                        <Array as="points">
                            <mxPoint x="-220" y="450"/>
                            <mxPoint x="-70" y="450"/>
                        </Array>
                    </mxGeometry>
                </mxCell>
                <mxCell id="43" value="&lt;font style=&quot;font-size: 8px;&quot;&gt;Buy Now&lt;/font&gt;" style="rounded=1;whiteSpace=wrap;html=1;fontSize=10;fillColor=#f8cecc;strokeColor=#b85450;" parent="1" vertex="1">
                    <mxGeometry x="-240" y="420" width="40" height="20" as="geometry"/>
                </mxCell>
                <mxCell id="224" style="edgeStyle=none;html=1;exitX=0.992;exitY=0.827;exitDx=0;exitDy=0;exitPerimeter=0;" edge="1" parent="1" source="44">
                    <mxGeometry relative="1" as="geometry">
                        <mxPoint x="-90" y="430" as="targetPoint"/>
                        <Array as="points">
                            <mxPoint x="-90" y="440"/>
                        </Array>
                    </mxGeometry>
                </mxCell>
                <mxCell id="44" value="&lt;font style=&quot;font-size: 8px;&quot;&gt;Learn more &amp;gt;&lt;/font&gt;" style="text;html=1;strokeColor=#6c8ebf;fillColor=#dae8fc;align=center;verticalAlign=middle;whiteSpace=wrap;rounded=0;fontSize=10;" parent="1" vertex="1">
                    <mxGeometry x="-195" y="422.5" width="50" height="15" as="geometry"/>
                </mxCell>
                <mxCell id="218" style="edgeStyle=none;html=1;exitX=0.5;exitY=1;exitDx=0;exitDy=0;entryX=0;entryY=0.5;entryDx=0;entryDy=0;" edge="1" parent="1" source="45" target="221">
                    <mxGeometry relative="1" as="geometry">
                        <Array as="points">
                            <mxPoint x="-200" y="420"/>
                        </Array>
                    </mxGeometry>
                </mxCell>
                <mxCell id="45" value="From" style="rounded=0;whiteSpace=wrap;html=1;fontSize=8;fillColor=#d5e8d4;strokeColor=#82b366;" parent="1" vertex="1">
                    <mxGeometry x="-230" y="390" width="30" height="15" as="geometry"/>
                </mxCell>
                <mxCell id="219" style="edgeStyle=none;html=1;" edge="1" parent="1" source="46">
                    <mxGeometry relative="1" as="geometry">
                        <mxPoint x="-170" y="420" as="targetPoint"/>
                    </mxGeometry>
                </mxCell>
                <mxCell id="46" value="79.999/-" style="text;html=1;strokeColor=#82b366;fillColor=#d5e8d4;align=center;verticalAlign=middle;whiteSpace=wrap;rounded=0;fontSize=8;" parent="1" vertex="1">
                    <mxGeometry x="-190" y="390" width="40" height="15" as="geometry"/>
                </mxCell>
                <mxCell id="220" style="edgeStyle=none;html=1;exitX=0.5;exitY=1;exitDx=0;exitDy=0;" edge="1" parent="1" source="47">
                    <mxGeometry relative="1" as="geometry">
                        <mxPoint x="-122.53846153846155" y="420" as="targetPoint"/>
                    </mxGeometry>
                </mxCell>
                <mxCell id="47" value="&lt;strike&gt;85,000/-&lt;/strike&gt;" style="text;html=1;strokeColor=#82b366;fillColor=#d5e8d4;align=center;verticalAlign=middle;whiteSpace=wrap;rounded=0;fontSize=8;" parent="1" vertex="1">
                    <mxGeometry x="-140" y="390" width="35" height="15" as="geometry"/>
                </mxCell>
                <mxCell id="227" style="edgeStyle=none;html=1;exitX=-0.001;exitY=0.291;exitDx=0;exitDy=0;entryX=1;entryY=0.5;entryDx=0;entryDy=0;exitPerimeter=0;" edge="1" parent="1" source="49" target="226">
                    <mxGeometry relative="1" as="geometry">
                        <Array as="points">
                            <mxPoint x="-360" y="530"/>
                            <mxPoint x="-360" y="480"/>
                        </Array>
                    </mxGeometry>
                </mxCell>
                <mxCell id="49" value="" style="rounded=0;whiteSpace=wrap;html=1;fontSize=8;fillColor=#fff2cc;strokeColor=#d6b656;" parent="1" vertex="1">
                    <mxGeometry x="-340" y="470" width="820" height="210" as="geometry"/>
                </mxCell>
                <mxCell id="230" style="edgeStyle=none;html=1;entryX=1;entryY=0.5;entryDx=0;entryDy=0;exitX=0;exitY=0.75;exitDx=0;exitDy=0;" edge="1" parent="1" source="50" target="228">
                    <mxGeometry relative="1" as="geometry">
                        <Array as="points">
                            <mxPoint x="-360" y="623"/>
                            <mxPoint x="-360" y="680"/>
                        </Array>
                    </mxGeometry>
                </mxCell>
                <mxCell id="50" value="&lt;font style=&quot;font-size: 28px;&quot;&gt;&lt;br&gt;&lt;br&gt;Offer Image&lt;/font&gt;" style="rounded=0;whiteSpace=wrap;html=1;fontSize=8;fillColor=#dae8fc;strokeColor=#6c8ebf;" parent="1" vertex="1">
                    <mxGeometry x="-321.25" y="480" width="412.5" height="190" as="geometry"/>
                </mxCell>
                <mxCell id="52" value="&lt;br style=&quot;border-color: var(--border-color); font-size: 28px;&quot;&gt;&lt;br style=&quot;border-color: var(--border-color); font-size: 28px;&quot;&gt;&lt;span style=&quot;font-size: 28px;&quot;&gt;Smart Tv Image&lt;/span&gt;" style="rounded=0;whiteSpace=wrap;html=1;fontSize=8;fillColor=#dae8fc;strokeColor=#6c8ebf;" parent="1" vertex="1">
                    <mxGeometry x="97.5" y="480" width="370" height="190" as="geometry"/>
                </mxCell>
                <mxCell id="61" value="" style="rounded=0;whiteSpace=wrap;html=1;labelBackgroundColor=#FFFFFF;strokeColor=#d6b656;fontSize=12;fillColor=#fff2cc;" parent="1" vertex="1">
                    <mxGeometry x="-340" y="680" width="820" height="230" as="geometry"/>
                </mxCell>
                <mxCell id="62" value="&lt;font style=&quot;font-size: 16px;&quot;&gt;&lt;br&gt;&lt;br&gt;&lt;br&gt;&lt;br&gt;Student Image&lt;/font&gt;" style="rounded=0;whiteSpace=wrap;html=1;fontSize=8;fillColor=#dae8fc;strokeColor=#6c8ebf;" parent="1" vertex="1">
                    <mxGeometry x="-330" y="700" width="412.5" height="190" as="geometry"/>
                </mxCell>
                <mxCell id="67" value="&lt;br&gt;&lt;br&gt;&lt;br&gt;image" style="rounded=0;whiteSpace=wrap;html=1;labelBackgroundColor=none;strokeColor=#82b366;fontSize=14;fillColor=#d5e8d4;" parent="1" vertex="1">
                    <mxGeometry x="100" y="700" width="170" height="190" as="geometry"/>
                </mxCell>
                <mxCell id="68" value="&lt;br&gt;&lt;br&gt;&lt;br&gt;image" style="rounded=0;whiteSpace=wrap;html=1;labelBackgroundColor=none;strokeColor=#82b366;fontSize=14;fillColor=#d5e8d4;" parent="1" vertex="1">
                    <mxGeometry x="300" y="700" width="170" height="190" as="geometry"/>
                </mxCell>
                <mxCell id="69" value="&lt;span style=&quot;font-weight: 700; line-height: 1.2; -webkit-box-orient: vertical; -webkit-line-clamp: 2; display: -webkit-box; overflow: hidden; text-overflow: ellipsis; word-break: break-word; font-family: &amp;quot;Camphor Pro VF&amp;quot;, &amp;quot;Camphor Pro&amp;quot;, sans-serif;&quot; class=&quot;site-event__title&quot;&gt;&lt;span style=&quot;font-size: 14px;&quot;&gt;Laptop &amp;amp; Tablet&lt;/span&gt;&lt;/span&gt;" style="rounded=0;whiteSpace=wrap;html=1;labelBackgroundColor=#FFFFFF;strokeColor=#d6b656;fontSize=16;fillColor=#fff2cc;" parent="1" vertex="1">
                    <mxGeometry x="105" y="720" width="160" height="30" as="geometry"/>
                </mxCell>
                <mxCell id="71" value="Buy Now" style="rounded=0;whiteSpace=wrap;html=1;labelBackgroundColor=#FFFFFF;strokeColor=#f7f3f3;fontSize=12;fontColor=#000000;fillColor=#FFFFFF;" parent="1" vertex="1">
                    <mxGeometry x="140" y="765" width="65" height="20" as="geometry"/>
                </mxCell>
                <mxCell id="72" value="&amp;gt;" style="text;html=1;strokeColor=none;fillColor=none;align=center;verticalAlign=middle;whiteSpace=wrap;rounded=0;labelBackgroundColor=#FFFFFF;fontSize=12;fontColor=#000000;" parent="1" vertex="1">
                    <mxGeometry x="187.5" y="760" width="60" height="30" as="geometry"/>
                </mxCell>
                <mxCell id="73" value="&lt;span style=&quot;font-weight: 700; line-height: 1.2; -webkit-box-orient: vertical; -webkit-line-clamp: 2; display: -webkit-box; overflow: hidden; text-overflow: ellipsis; word-break: break-word; font-family: &amp;quot;Camphor Pro VF&amp;quot;, &amp;quot;Camphor Pro&amp;quot;, sans-serif;&quot; class=&quot;site-event__title&quot;&gt;&lt;span style=&quot;font-size: 14px;&quot;&gt;PowerBank&lt;/span&gt;&lt;/span&gt;" style="rounded=0;whiteSpace=wrap;html=1;labelBackgroundColor=#FFFFFF;strokeColor=#d6b656;fontSize=16;fillColor=#fff2cc;" parent="1" vertex="1">
                    <mxGeometry x="305" y="720" width="160" height="30" as="geometry"/>
                </mxCell>
                <mxCell id="74" value="Buy Now" style="rounded=0;whiteSpace=wrap;html=1;labelBackgroundColor=#FFFFFF;strokeColor=#f7f3f3;fontSize=12;fontColor=#000000;fillColor=#FFFFFF;" parent="1" vertex="1">
                    <mxGeometry x="340" y="765" width="65" height="20" as="geometry"/>
                </mxCell>
                <mxCell id="75" value="&amp;gt;" style="text;html=1;strokeColor=none;fillColor=none;align=center;verticalAlign=middle;whiteSpace=wrap;rounded=0;labelBackgroundColor=#FFFFFF;fontSize=12;fontColor=#000000;" parent="1" vertex="1">
                    <mxGeometry x="387.5" y="760" width="60" height="30" as="geometry"/>
                </mxCell>
                <mxCell id="79" value="" style="rounded=0;whiteSpace=wrap;html=1;labelBackgroundColor=none;strokeColor=#10739e;fontSize=14;fillColor=#b1ddf0;" parent="1" vertex="1">
                    <mxGeometry x="-305" y="940" width="750" height="720" as="geometry"/>
                </mxCell>
                <mxCell id="80" value="" style="rounded=0;whiteSpace=wrap;html=1;labelBackgroundColor=none;strokeColor=#b46504;fontSize=14;fillColor=#fad7ac;" parent="1" vertex="1">
                    <mxGeometry x="-290" y="960" width="350" height="330" as="geometry"/>
                </mxCell>
                <mxCell id="82" value="" style="rounded=0;whiteSpace=wrap;html=1;labelBackgroundColor=none;strokeColor=#b46504;fontSize=14;fillColor=#fad7ac;" parent="1" vertex="1">
                    <mxGeometry x="80" y="960" width="350" height="330" as="geometry"/>
                </mxCell>
                <mxCell id="83" value="" style="rounded=0;whiteSpace=wrap;html=1;labelBackgroundColor=none;strokeColor=#b46504;fontSize=14;fillColor=#fad7ac;" parent="1" vertex="1">
                    <mxGeometry x="-290" y="1310" width="350" height="330" as="geometry"/>
                </mxCell>
                <mxCell id="84" value="" style="rounded=0;whiteSpace=wrap;html=1;labelBackgroundColor=none;strokeColor=#b46504;fontSize=14;fillColor=#fad7ac;" parent="1" vertex="1">
                    <mxGeometry x="80" y="1310" width="350" height="160" as="geometry"/>
                </mxCell>
                <mxCell id="85" value="" style="rounded=0;whiteSpace=wrap;html=1;labelBackgroundColor=none;strokeColor=#b46504;fontSize=14;fillColor=#fad7ac;" parent="1" vertex="1">
                    <mxGeometry x="80" y="1480" width="350" height="160" as="geometry"/>
                </mxCell>
                <mxCell id="87" value="" style="rounded=0;whiteSpace=wrap;html=1;labelBackgroundColor=none;strokeColor=#6F0000;fontSize=14;fontColor=#ffffff;fillColor=#4D4D4D;" parent="1" vertex="1">
                    <mxGeometry x="-340" y="1690" width="820" height="490" as="geometry"/>
                </mxCell>
                <mxCell id="88" value="&lt;font color=&quot;#ffffff&quot;&gt;Play&lt;br&gt;Icon&lt;/font&gt;" style="rounded=1;whiteSpace=wrap;html=1;labelBackgroundColor=none;strokeColor=#FFFFFF;fontSize=14;fontColor=#000000;fillColor=#4D4D4D;" parent="1" vertex="1">
                    <mxGeometry x="-136" y="1100" width="49.25" height="50" as="geometry"/>
                </mxCell>
                <mxCell id="89" value="&lt;font style=&quot;font-size: 30px;&quot; color=&quot;#000000&quot;&gt;Image&lt;/font&gt;" style="text;html=1;strokeColor=none;fillColor=none;align=center;verticalAlign=middle;whiteSpace=wrap;rounded=0;labelBackgroundColor=none;fontSize=14;fontColor=#FFFFFF;rotation=-31;" parent="1" vertex="1">
                    <mxGeometry x="-233.29000000000002" y="1028.14" width="130" height="90" as="geometry"/>
                </mxCell>
                <mxCell id="91" value="&lt;span style=&quot;color: rgb(255, 105, 0); font-family: &amp;quot;Camphor Pro VF&amp;quot;, &amp;quot;Camphor Pro&amp;quot;, sans-serif; font-size: 14.1px; font-weight: 700;&quot;&gt;# Discovery&lt;/span&gt;" style="rounded=0;whiteSpace=wrap;html=1;labelBackgroundColor=none;strokeColor=#82b366;fontSize=30;fillColor=#d5e8d4;" parent="1" vertex="1">
                    <mxGeometry x="207.5" y="1000" width="97.5" height="28.14" as="geometry"/>
                </mxCell>
                <mxCell id="92" value="" style="rounded=0;whiteSpace=wrap;html=1;labelBackgroundColor=none;strokeColor=#FFFFFF;fontSize=30;fontColor=#000000;fillColor=#FFFFFF;" parent="1" vertex="1">
                    <mxGeometry x="150" y="1040" width="220" height="30" as="geometry"/>
                </mxCell>
                <mxCell id="93" value="" style="rounded=0;whiteSpace=wrap;html=1;labelBackgroundColor=none;strokeColor=#FFFFFF;fontSize=30;fontColor=#000000;fillColor=#FFFFFF;" parent="1" vertex="1">
                    <mxGeometry x="100" y="1088.14" width="310" height="30" as="geometry"/>
                </mxCell>
                <mxCell id="94" value="" style="rounded=0;whiteSpace=wrap;html=1;labelBackgroundColor=none;strokeColor=#FFFFFF;fontSize=16;fontColor=#FFFFFF;fillColor=#FFFFFF;" parent="1" vertex="1">
                    <mxGeometry x="215" y="1130" width="80" height="20" as="geometry"/>
                </mxCell>
                <mxCell id="95" value="Buy Now" style="rounded=0;whiteSpace=wrap;html=1;labelBackgroundColor=#FFFFFF;strokeColor=#f7f3f3;fontSize=12;fontColor=#000000;fillColor=#FFFFFF;" parent="1" vertex="1">
                    <mxGeometry x="215" y="1165" width="65" height="20" as="geometry"/>
                </mxCell>
                <mxCell id="96" value="&amp;gt;" style="text;html=1;strokeColor=none;fillColor=none;align=center;verticalAlign=middle;whiteSpace=wrap;rounded=0;labelBackgroundColor=#FFFFFF;fontSize=12;fontColor=#000000;" parent="1" vertex="1">
                    <mxGeometry x="262.5" y="1160" width="60" height="30" as="geometry"/>
                </mxCell>
                <mxCell id="97" value="" style="rounded=1;whiteSpace=wrap;html=1;labelBackgroundColor=none;strokeColor=#FFFFFF;fontSize=16;fontColor=#FFFFFF;fillColor=#FFFFFF;" parent="1" vertex="1">
                    <mxGeometry x="201.25" y="1220" width="32.5" height="30" as="geometry"/>
                </mxCell>
                <mxCell id="100" value="Buy Now" style="rounded=0;whiteSpace=wrap;html=1;labelBackgroundColor=#FFFFFF;strokeColor=#f7f3f3;fontSize=12;fontColor=#000000;fillColor=#FFFFFF;" parent="1" vertex="1">
                    <mxGeometry x="340" y="765" width="65" height="20" as="geometry"/>
                </mxCell>
                <mxCell id="101" value="&amp;gt;" style="text;html=1;strokeColor=none;fillColor=none;align=center;verticalAlign=middle;whiteSpace=wrap;rounded=0;labelBackgroundColor=#FFFFFF;fontSize=12;fontColor=#000000;" parent="1" vertex="1">
                    <mxGeometry x="387.5" y="760" width="60" height="30" as="geometry"/>
                </mxCell>
                <mxCell id="102" value="" style="rounded=1;whiteSpace=wrap;html=1;labelBackgroundColor=none;strokeColor=#FFFFFF;fontSize=16;fontColor=#FFFFFF;fillColor=#FFFFFF;" parent="1" vertex="1">
                    <mxGeometry x="260" y="1220" width="32.5" height="30" as="geometry"/>
                </mxCell>
                <mxCell id="108" value="" style="line;strokeWidth=2;html=1;labelBackgroundColor=none;strokeColor=#FFFFFF;fontSize=16;fontColor=#FFFFFF;fillColor=#FFFFFF;" parent="1" vertex="1">
                    <mxGeometry x="162.5" y="1270" width="160" height="10" as="geometry"/>
                </mxCell>
                <mxCell id="109" value="" style="rounded=0;whiteSpace=wrap;html=1;labelBackgroundColor=none;strokeColor=#FFFFFF;fontSize=16;fontColor=#FFFFFF;fillColor=#FFFFFF;" parent="1" vertex="1">
                    <mxGeometry x="-320" y="1710" width="110" height="380" as="geometry"/>
                </mxCell>
                <mxCell id="110" value="" style="rounded=0;whiteSpace=wrap;html=1;labelBackgroundColor=none;strokeColor=#FFFFFF;fontSize=16;fontColor=#FFFFFF;fillColor=#FFFFFF;" parent="1" vertex="1">
                    <mxGeometry x="-195" y="1710" width="115" height="380" as="geometry"/>
                </mxCell>
                <mxCell id="111" value="" style="rounded=0;whiteSpace=wrap;html=1;labelBackgroundColor=none;strokeColor=#FFFFFF;fontSize=16;fontColor=#FFFFFF;fillColor=#FFFFFF;" parent="1" vertex="1">
                    <mxGeometry x="-65" y="1710" width="120" height="380" as="geometry"/>
                </mxCell>
                <mxCell id="112" value="" style="rounded=0;whiteSpace=wrap;html=1;labelBackgroundColor=none;strokeColor=#FFFFFF;fontSize=16;fontColor=#FFFFFF;fillColor=#FFFFFF;" parent="1" vertex="1">
                    <mxGeometry x="74" y="1710" width="115" height="380" as="geometry"/>
                </mxCell>
                <mxCell id="115" value="" style="rounded=0;whiteSpace=wrap;html=1;labelBackgroundColor=none;strokeColor=#FFFFFF;fontSize=16;fontColor=#FFFFFF;fillColor=#FFFFFF;" parent="1" vertex="1">
                    <mxGeometry x="202.5" y="1710" width="257.5" height="380" as="geometry"/>
                </mxCell>
                <mxCell id="117" value="" style="line;strokeWidth=4;html=1;perimeter=backbonePerimeter;points=[];outlineConnect=0;labelBackgroundColor=none;strokeColor=#FFFFFF;fontSize=16;fontColor=#FFFFFF;fillColor=#FFFFFF;" parent="1" vertex="1">
                    <mxGeometry x="-320" y="2110" width="780" height="10" as="geometry"/>
                </mxCell>
                <mxCell id="119" style="edgeStyle=none;html=1;entryX=0.057;entryY=-0.054;entryDx=0;entryDy=0;entryPerimeter=0;" parent="1" source="118" target="3" edge="1">
                    <mxGeometry relative="1" as="geometry">
                        <mxPoint x="-292" y="-10" as="targetPoint"/>
                    </mxGeometry>
                </mxCell>
                <mxCell id="118" value="&lt;div style=&quot;font-family: Menlo, Monaco, &amp;quot;Courier New&amp;quot;, monospace; line-height: 18px;&quot;&gt;&lt;div style=&quot;&quot;&gt;&lt;span style=&quot;background-color: rgb(255, 255, 255);&quot;&gt;position: fixed;&lt;/span&gt;&lt;/div&gt;&lt;div style=&quot;&quot;&gt;&lt;span style=&quot;background-color: rgb(255, 255, 255);&quot;&gt;  background-color: white;&lt;/span&gt;&lt;/div&gt;&lt;div style=&quot;&quot;&gt;&lt;span style=&quot;background-color: rgb(255, 255, 255);&quot;&gt;  width: 100%;&lt;/span&gt;&lt;/div&gt;&lt;div style=&quot;&quot;&gt;&lt;span style=&quot;background-color: rgb(255, 255, 255);&quot;&gt;  right: 0px;&lt;/span&gt;&lt;/div&gt;&lt;div style=&quot;&quot;&gt;&lt;span style=&quot;background-color: rgb(255, 255, 255);&quot;&gt;  z-index:1;&lt;/span&gt;&lt;/div&gt;&lt;/div&gt;" style="rounded=0;whiteSpace=wrap;html=1;" parent="1" vertex="1">
                    <mxGeometry x="-362.5" y="-250" width="140" height="110" as="geometry"/>
                </mxCell>
                <mxCell id="123" style="edgeStyle=none;html=1;entryX=0.449;entryY=0.048;entryDx=0;entryDy=0;entryPerimeter=0;fontColor=#000000;" parent="1" source="120" target="24" edge="1">
                    <mxGeometry relative="1" as="geometry"/>
                </mxCell>
                <mxCell id="120" value="&lt;div style=&quot;font-family: Menlo, Monaco, &amp;quot;Courier New&amp;quot;, monospace; line-height: 18px;&quot;&gt;&lt;div style=&quot;&quot;&gt;&lt;span style=&quot;background-color: rgb(255, 255, 255);&quot;&gt;margin: 10px 32px;&lt;/span&gt;&lt;/div&gt;&lt;div style=&quot;&quot;&gt;&lt;span style=&quot;background-color: rgb(255, 255, 255);&quot;&gt;  display: flex;&lt;/span&gt;&lt;/div&gt;&lt;div style=&quot;&quot;&gt;&lt;span style=&quot;background-color: rgb(255, 255, 255);&quot;&gt;  gap: 30px;&lt;/span&gt;&lt;/div&gt;&lt;/div&gt;" style="rounded=0;whiteSpace=wrap;html=1;" parent="1" vertex="1">
                    <mxGeometry x="-195" y="-250" width="127.5" height="110" as="geometry"/>
                </mxCell>
                <mxCell id="139" style="edgeStyle=none;html=1;exitX=0.5;exitY=0;exitDx=0;exitDy=0;fontColor=#000000;" parent="1" source="122" edge="1">
                    <mxGeometry relative="1" as="geometry">
                        <mxPoint x="-140" y="-20" as="targetPoint"/>
                        <Array as="points">
                            <mxPoint x="158" y="-20"/>
                        </Array>
                    </mxGeometry>
                </mxCell>
                <mxCell id="122" value="" style="rounded=0;whiteSpace=wrap;html=1;fillStyle=auto;strokeColor=#d6b656;fontSize=27;fillColor=#fff2cc;gradientColor=#ffd966;" parent="1" vertex="1">
                    <mxGeometry x="111.25" y="7.5" width="93.75" height="52.5" as="geometry"/>
                </mxCell>
                <mxCell id="124" value="&lt;div style=&quot;font-family: Menlo, Monaco, &amp;quot;Courier New&amp;quot;, monospace; line-height: 18px;&quot;&gt;&lt;div style=&quot;&quot;&gt;&lt;span style=&quot;background-color: rgb(255, 255, 255);&quot;&gt;display: flex;&lt;/span&gt;&lt;/div&gt;&lt;div style=&quot;&quot;&gt;&lt;span style=&quot;background-color: rgb(255, 255, 255);&quot;&gt;  list-style-type: none;&lt;/span&gt;&lt;/div&gt;&lt;div style=&quot;&quot;&gt;&lt;span style=&quot;background-color: rgb(255, 255, 255);&quot;&gt;  padding: 0px;&lt;/span&gt;&lt;/div&gt;&lt;div style=&quot;&quot;&gt;&lt;span style=&quot;background-color: rgb(255, 255, 255);&quot;&gt;  gap: 30px;&lt;/span&gt;&lt;/div&gt;&lt;div style=&quot;&quot;&gt;&lt;span style=&quot;background-color: rgb(255, 255, 255);&quot;&gt;  font-family:&lt;/span&gt;;&lt;/div&gt;&lt;/div&gt;" style="rounded=0;whiteSpace=wrap;html=1;labelBackgroundColor=#FFFFFF;fontColor=#000000;" parent="1" vertex="1">
                    <mxGeometry x="-40.5" y="-250" width="162.5" height="170" as="geometry"/>
                </mxCell>
                <mxCell id="142" value="&lt;div style=&quot;font-family: Menlo, Monaco, &amp;quot;Courier New&amp;quot;, monospace; line-height: 18px;&quot;&gt;&lt;span style=&quot;background-color: rgb(255, 255, 255);&quot;&gt;align-self: center;&lt;/span&gt;&lt;/div&gt;" style="rounded=0;whiteSpace=wrap;html=1;labelBackgroundColor=#FFFFFF;fontColor=#000000;" parent="1" vertex="1">
                    <mxGeometry x="-520" y="3.75" width="120" height="60" as="geometry"/>
                </mxCell>
                <mxCell id="145" style="edgeStyle=none;html=1;fontColor=#000000;" parent="1" source="144" edge="1">
                    <mxGeometry relative="1" as="geometry">
                        <mxPoint x="190" y="40" as="targetPoint"/>
                    </mxGeometry>
                </mxCell>
                <mxCell id="144" value="&lt;div style=&quot;font-family: Menlo, Monaco, &amp;quot;Courier New&amp;quot;, monospace; line-height: 18px;&quot;&gt;&lt;span style=&quot;background-color: rgb(255, 255, 255);&quot;&gt;flex-grow: 1;&lt;/span&gt;&lt;/div&gt;" style="rounded=0;whiteSpace=wrap;html=1;labelBackgroundColor=#FFFFFF;fontColor=#000000;" parent="1" vertex="1">
                    <mxGeometry x="130" y="-210" width="120" height="60" as="geometry"/>
                </mxCell>
                <mxCell id="146" value="width:100%;&lt;br&gt;height:450px;&lt;br&gt;" style="whiteSpace=wrap;html=1;" parent="1" vertex="1">
                    <mxGeometry x="-520" y="80" width="80" height="40" as="geometry"/>
                </mxCell>
                <mxCell id="149" value="&amp;lt;img&amp;gt;&amp;lt;/img&amp;gt;&lt;br&gt;object-fit:cover;&lt;br&gt;height: ;&lt;br&gt;width: ;" style="whiteSpace=wrap;html=1;" parent="1" vertex="1">
                    <mxGeometry x="-520" y="140" width="120" height="60" as="geometry"/>
                </mxCell>
                <mxCell id="152" value="Support" style="whiteSpace=wrap;html=1;fillColor=#fff2cc;strokeColor=#d6b656;" parent="1" vertex="1">
                    <mxGeometry x="-310" y="1720" width="90" height="20" as="geometry"/>
                </mxCell>
                <mxCell id="156" value="&lt;div style=&quot;text-align: justify;&quot;&gt;&lt;span style=&quot;font-size: 20px; background-color: initial;&quot;&gt;List&lt;/span&gt;&lt;/div&gt;&lt;font style=&quot;font-size: 20px;&quot;&gt;&lt;div style=&quot;text-align: justify;&quot;&gt;&lt;span style=&quot;background-color: initial;&quot;&gt;List&lt;/span&gt;&lt;/div&gt;&lt;div style=&quot;text-align: justify;&quot;&gt;&lt;span style=&quot;background-color: initial;&quot;&gt;List&lt;/span&gt;&lt;/div&gt;&lt;div style=&quot;text-align: justify;&quot;&gt;&lt;span style=&quot;background-color: initial;&quot;&gt;List&lt;/span&gt;&lt;/div&gt;&lt;div style=&quot;text-align: justify;&quot;&gt;&lt;span style=&quot;background-color: initial;&quot;&gt;List&lt;/span&gt;&lt;/div&gt;&lt;div style=&quot;text-align: justify;&quot;&gt;&lt;span style=&quot;background-color: initial;&quot;&gt;List&lt;/span&gt;&lt;/div&gt;&lt;div style=&quot;text-align: justify;&quot;&gt;&lt;span style=&quot;background-color: initial;&quot;&gt;List&lt;/span&gt;&lt;/div&gt;&lt;div style=&quot;text-align: justify;&quot;&gt;&lt;span style=&quot;background-color: initial;&quot;&gt;List&lt;/span&gt;&lt;/div&gt;&lt;/font&gt;" style="whiteSpace=wrap;html=1;fontColor=#000000;align=center;" parent="1" vertex="1">
                    <mxGeometry x="-315" y="1754" width="100" height="226.5" as="geometry"/>
                </mxCell>
                <mxCell id="157" value="Shop and Learn" style="whiteSpace=wrap;html=1;fillColor=#fff2cc;strokeColor=#d6b656;" parent="1" vertex="1">
                    <mxGeometry x="-181.75" y="1719.75" width="91.75" height="20" as="geometry"/>
                </mxCell>
                <mxCell id="158" value="&lt;div style=&quot;text-align: justify;&quot;&gt;&lt;span style=&quot;font-size: 20px; background-color: initial;&quot;&gt;List&lt;/span&gt;&lt;/div&gt;&lt;font style=&quot;font-size: 20px;&quot;&gt;&lt;div style=&quot;text-align: justify;&quot;&gt;&lt;span style=&quot;background-color: initial;&quot;&gt;List&lt;/span&gt;&lt;/div&gt;&lt;div style=&quot;text-align: justify;&quot;&gt;&lt;span style=&quot;background-color: initial;&quot;&gt;List&lt;/span&gt;&lt;/div&gt;&lt;div style=&quot;text-align: justify;&quot;&gt;&lt;span style=&quot;background-color: initial;&quot;&gt;List&lt;/span&gt;&lt;/div&gt;&lt;div style=&quot;text-align: justify;&quot;&gt;&lt;span style=&quot;background-color: initial;&quot;&gt;List&lt;/span&gt;&lt;/div&gt;&lt;div style=&quot;text-align: justify;&quot;&gt;&lt;span style=&quot;background-color: initial;&quot;&gt;List&lt;/span&gt;&lt;/div&gt;&lt;div style=&quot;text-align: justify;&quot;&gt;&lt;span style=&quot;background-color: initial;&quot;&gt;List&lt;/span&gt;&lt;/div&gt;&lt;div style=&quot;text-align: justify;&quot;&gt;&lt;span style=&quot;background-color: initial;&quot;&gt;List&lt;/span&gt;&lt;/div&gt;&lt;/font&gt;" style="whiteSpace=wrap;html=1;fontColor=#000000;align=center;" parent="1" vertex="1">
                    <mxGeometry x="-186.75" y="1753.75" width="100" height="226.5" as="geometry"/>
                </mxCell>
                <mxCell id="159" value="Retail Store" style="whiteSpace=wrap;html=1;fillColor=#fff2cc;strokeColor=#d6b656;" parent="1" vertex="1">
                    <mxGeometry x="-50" y="1719.75" width="90" height="20" as="geometry"/>
                </mxCell>
                <mxCell id="160" value="&lt;div style=&quot;text-align: justify;&quot;&gt;&lt;span style=&quot;font-size: 20px; background-color: initial;&quot;&gt;List&lt;/span&gt;&lt;/div&gt;&lt;font style=&quot;font-size: 20px;&quot;&gt;&lt;div style=&quot;text-align: justify;&quot;&gt;&lt;span style=&quot;background-color: initial;&quot;&gt;List&lt;/span&gt;&lt;/div&gt;&lt;div style=&quot;text-align: justify;&quot;&gt;&lt;span style=&quot;background-color: initial;&quot;&gt;List&lt;/span&gt;&lt;/div&gt;&lt;div style=&quot;text-align: justify;&quot;&gt;&lt;span style=&quot;background-color: initial;&quot;&gt;List&lt;/span&gt;&lt;/div&gt;&lt;div style=&quot;text-align: justify;&quot;&gt;&lt;span style=&quot;background-color: initial;&quot;&gt;List&lt;/span&gt;&lt;/div&gt;&lt;div style=&quot;text-align: justify;&quot;&gt;&lt;span style=&quot;background-color: initial;&quot;&gt;List&lt;/span&gt;&lt;/div&gt;&lt;div style=&quot;text-align: justify;&quot;&gt;&lt;span style=&quot;background-color: initial;&quot;&gt;List&lt;/span&gt;&lt;/div&gt;&lt;div style=&quot;text-align: justify;&quot;&gt;&lt;span style=&quot;background-color: initial;&quot;&gt;List&lt;/span&gt;&lt;/div&gt;&lt;/font&gt;" style="whiteSpace=wrap;html=1;fontColor=#000000;align=center;" parent="1" vertex="1">
                    <mxGeometry x="-55" y="1753.75" width="100" height="226.5" as="geometry"/>
                </mxCell>
                <mxCell id="161" value="About us" style="whiteSpace=wrap;html=1;fillColor=#fff2cc;strokeColor=#d6b656;" parent="1" vertex="1">
                    <mxGeometry x="85" y="1720" width="90" height="20" as="geometry"/>
                </mxCell>
                <mxCell id="162" value="&lt;div style=&quot;text-align: justify;&quot;&gt;&lt;span style=&quot;font-size: 20px; background-color: initial;&quot;&gt;List&lt;/span&gt;&lt;/div&gt;&lt;font style=&quot;font-size: 20px;&quot;&gt;&lt;div style=&quot;text-align: justify;&quot;&gt;&lt;span style=&quot;background-color: initial;&quot;&gt;List&lt;/span&gt;&lt;/div&gt;&lt;div style=&quot;text-align: justify;&quot;&gt;&lt;span style=&quot;background-color: initial;&quot;&gt;List&lt;/span&gt;&lt;/div&gt;&lt;div style=&quot;text-align: justify;&quot;&gt;&lt;span style=&quot;background-color: initial;&quot;&gt;List&lt;/span&gt;&lt;/div&gt;&lt;div style=&quot;text-align: justify;&quot;&gt;&lt;span style=&quot;background-color: initial;&quot;&gt;List&lt;/span&gt;&lt;/div&gt;&lt;div style=&quot;text-align: justify;&quot;&gt;&lt;span style=&quot;background-color: initial;&quot;&gt;List&lt;/span&gt;&lt;/div&gt;&lt;div style=&quot;text-align: justify;&quot;&gt;&lt;span style=&quot;background-color: initial;&quot;&gt;List&lt;/span&gt;&lt;/div&gt;&lt;div style=&quot;text-align: justify;&quot;&gt;&lt;span style=&quot;background-color: initial;&quot;&gt;List&lt;/span&gt;&lt;/div&gt;&lt;/font&gt;" style="whiteSpace=wrap;html=1;fontColor=#000000;align=center;" parent="1" vertex="1">
                    <mxGeometry x="80" y="1754" width="100" height="226" as="geometry"/>
                </mxCell>
                <mxCell id="163" value="&lt;h3 style=&quot;text-align: justify; line-height: 20px; margin: 0px 0px 16px; caret-color: rgb(255, 255, 255); font-family: &amp;quot;Camphor Pro VF&amp;quot;, &amp;quot;Camphor Pro&amp;quot;, sans-serif; text-size-adjust: auto;&quot; class=&quot;site-footer__title&quot;&gt;&lt;font style=&quot;font-size: 16px;&quot;&gt;Follow Mi&lt;/font&gt;&lt;/h3&gt;" style="whiteSpace=wrap;html=1;fillColor=#fff2cc;strokeColor=#d6b656;" parent="1" vertex="1">
                    <mxGeometry x="215" y="1720" width="90" height="40" as="geometry"/>
                </mxCell>
                <mxCell id="164" value="" style="whiteSpace=wrap;html=1;fillColor=#fff2cc;strokeColor=#d6b656;" parent="1" vertex="1">
                    <mxGeometry x="212.5" y="1770" width="225" height="46" as="geometry"/>
                </mxCell>
                <mxCell id="165" value="&lt;h3 style=&quot;font-size: 16px; line-height: 20px; margin: 0px 0px 16px; caret-color: rgb(255, 255, 255); font-family: &amp;quot;Camphor Pro VF&amp;quot;, &amp;quot;Camphor Pro&amp;quot;, sans-serif; text-align: start; text-size-adjust: auto;&quot; class=&quot;site-footer__title&quot;&gt;Let's stay in touch&lt;/h3&gt;" style="whiteSpace=wrap;html=1;fillColor=#fff2cc;strokeColor=#d6b656;" parent="1" vertex="1">
                    <mxGeometry x="215" y="1830" width="155" height="30" as="geometry"/>
                </mxCell>
                <mxCell id="166" value="&lt;span style=&quot;font-size: 12px;&quot;&gt;icon&lt;/span&gt;" style="whiteSpace=wrap;html=1;fontSize=20;fillColor=#f8cecc;strokeColor=#b85450;" parent="1" vertex="1">
                    <mxGeometry x="220" y="1778" width="40" height="30" as="geometry"/>
                </mxCell>
                <mxCell id="168" value="&lt;font style=&quot;font-size: 12px;&quot;&gt;icon&lt;/font&gt;" style="whiteSpace=wrap;html=1;fontSize=20;fillColor=#f8cecc;strokeColor=#b85450;" parent="1" vertex="1">
                    <mxGeometry x="270" y="1778" width="40" height="30" as="geometry"/>
                </mxCell>
                <mxCell id="169" value="&lt;font style=&quot;font-size: 12px;&quot;&gt;icon&lt;/font&gt;" style="whiteSpace=wrap;html=1;fontSize=20;fillColor=#f8cecc;strokeColor=#b85450;" parent="1" vertex="1">
                    <mxGeometry x="320" y="1778" width="40" height="30" as="geometry"/>
                </mxCell>
                <mxCell id="172" value="" style="whiteSpace=wrap;html=1;fontSize=16;fontColor=#000000;" parent="1" vertex="1">
                    <mxGeometry x="212.5" y="1880" width="237.5" height="50" as="geometry"/>
                </mxCell>
                <mxCell id="174" value="icon" style="whiteSpace=wrap;html=1;fontSize=16;fontColor=#000000;" parent="1" vertex="1">
                    <mxGeometry x="407.5" y="1890" width="30" height="30" as="geometry"/>
                </mxCell>
                <mxCell id="175" value="" style="whiteSpace=wrap;html=1;fontSize=16;fontColor=#000000;" parent="1" vertex="1">
                    <mxGeometry x="220" y="1890" width="172" height="30" as="geometry"/>
                </mxCell>
                <mxCell id="176" value="" style="whiteSpace=wrap;html=1;fontSize=16;fontColor=#000000;" parent="1" vertex="1">
                    <mxGeometry x="215" y="1950" width="237.5" height="130" as="geometry"/>
                </mxCell>
                <mxCell id="183" value="QR code" style="whiteSpace=wrap;html=1;fontSize=16;fontColor=#000000;" parent="1" vertex="1">
                    <mxGeometry x="225" y="1960" width="65" height="60" as="geometry"/>
                </mxCell>
                <mxCell id="184" value="&lt;h3 style=&quot;line-height: 20px; margin: 0px 0px 8px; caret-color: rgb(255, 255, 255); font-family: &amp;quot;Camphor Pro VF&amp;quot;, &amp;quot;Camphor Pro&amp;quot;, sans-serif; text-align: start; text-size-adjust: auto;&quot; class=&quot;site-footer__title app-mi-store__title&quot;&gt;&lt;font style=&quot;font-size: 12px;&quot;&gt;Get mi store app&lt;/font&gt;&lt;/h3&gt;" style="whiteSpace=wrap;html=1;fontSize=16;fontColor=#000000;" parent="1" vertex="1">
                    <mxGeometry x="300" y="1960" width="120" height="20" as="geometry"/>
                </mxCell>
                <mxCell id="185" value="text" style="whiteSpace=wrap;html=1;fontSize=16;fontColor=#000000;" parent="1" vertex="1">
                    <mxGeometry x="300" y="1990" width="140" height="20" as="geometry"/>
                </mxCell>
                <mxCell id="186" value="icon" style="whiteSpace=wrap;html=1;fontSize=16;fontColor=#000000;" parent="1" vertex="1">
                    <mxGeometry x="227.5" y="2040" width="30" height="30" as="geometry"/>
                </mxCell>
                <mxCell id="187" value="text" style="whiteSpace=wrap;html=1;fontSize=16;fontColor=#000000;" parent="1" vertex="1">
                    <mxGeometry x="270" y="2045" width="170" height="20" as="geometry"/>
                </mxCell>
                <mxCell id="188" value="&lt;span style=&quot;caret-color: rgb(255, 255, 255); font-family: &amp;quot;Camphor Pro VF&amp;quot;, &amp;quot;Camphor Pro&amp;quot;, sans-serif; text-align: start; text-size-adjust: auto; background-color: rgb(255, 255, 255);&quot;&gt;Copyright © 2010 - 2023 Xiaomi. All Rights Reserved&lt;/span&gt;" style="whiteSpace=wrap;html=1;fontSize=12;fontColor=#000000;" parent="1" vertex="1">
                    <mxGeometry x="-320" y="2130" width="300" height="20" as="geometry"/>
                </mxCell>
                <mxCell id="189" value="&lt;a style=&quot;text-decoration-line: none; margin-inline-end: 16px; caret-color: rgb(255, 255, 255); font-family: &amp;quot;Camphor Pro VF&amp;quot;, &amp;quot;Camphor Pro&amp;quot;, sans-serif; font-size: 14px; text-align: start; text-size-adjust: auto;&quot; class=&quot;locale__link&quot; href=&quot;https://www.mi.com/in/select-location&quot;&gt;&lt;font color=&quot;#000000&quot;&gt;India / India&lt;/font&gt;&lt;/a&gt;" style="whiteSpace=wrap;html=1;labelBackgroundColor=#FFFFFF;fontSize=12;fontColor=#000000;" parent="1" vertex="1">
                    <mxGeometry x="305" y="2130" width="97.5" height="20" as="geometry"/>
                </mxCell>
                <mxCell id="190" value="icon" style="whiteSpace=wrap;html=1;labelBackgroundColor=#FFFFFF;fontSize=12;fontColor=#000000;" parent="1" vertex="1">
                    <mxGeometry x="410" y="2125" width="28" height="30" as="geometry"/>
                </mxCell>
                <mxCell id="191" value="height: ;&lt;br&gt;width: ;&lt;br&gt;left: ;&lt;br&gt;top: ;" style="whiteSpace=wrap;html=1;" vertex="1" parent="1">
                    <mxGeometry x="-520" y="210" width="120" height="70" as="geometry"/>
                </mxCell>
                <mxCell id="195" value="hight: ;&lt;br&gt;width:100% ;&lt;br&gt;&lt;br&gt;" style="whiteSpace=wrap;html=1;" vertex="1" parent="1">
                    <mxGeometry x="-520" y="290" width="120" height="50" as="geometry"/>
                </mxCell>
                <mxCell id="202" value="width:100%;&lt;br&gt;height:450px;&lt;br&gt;" style="whiteSpace=wrap;html=1;" vertex="1" parent="1">
                    <mxGeometry x="540" y="200" width="80" height="40" as="geometry"/>
                </mxCell>
                <mxCell id="204" value="&amp;lt;img&amp;gt;&amp;lt;/img&amp;gt;&lt;br&gt;object-fit:cover;&lt;br&gt;height: ;&lt;br&gt;width: ;" style="whiteSpace=wrap;html=1;" vertex="1" parent="1">
                    <mxGeometry x="540" y="250" width="120" height="60" as="geometry"/>
                </mxCell>
                <mxCell id="207" value="" style="endArrow=classic;html=1;entryX=0;entryY=0.75;entryDx=0;entryDy=0;" edge="1" parent="1" target="204">
                    <mxGeometry width="50" height="50" relative="1" as="geometry">
                        <mxPoint x="430" y="295" as="sourcePoint"/>
                        <mxPoint x="-80" y="190" as="targetPoint"/>
                    </mxGeometry>
                </mxCell>
                <mxCell id="208" value="height: ;&lt;br&gt;width: ;&lt;br&gt;left: ;&lt;br&gt;top: ;" style="whiteSpace=wrap;html=1;" vertex="1" parent="1">
                    <mxGeometry x="540" y="320" width="120" height="70" as="geometry"/>
                </mxCell>
                <mxCell id="213" value="" style="endArrow=classic;html=1;entryX=0;entryY=1;entryDx=0;entryDy=0;exitX=1.009;exitY=0.587;exitDx=0;exitDy=0;exitPerimeter=0;" edge="1" parent="1" source="39" target="208">
                    <mxGeometry width="50" height="50" relative="1" as="geometry">
                        <mxPoint x="-50" y="240" as="sourcePoint"/>
                        <mxPoint y="190" as="targetPoint"/>
                    </mxGeometry>
                </mxCell>
                <mxCell id="214" value="hight: ;&lt;br style=&quot;border-color: var(--border-color);&quot;&gt;width: ;" style="whiteSpace=wrap;html=1;" vertex="1" parent="1">
                    <mxGeometry x="540" y="400" width="60" height="40" as="geometry"/>
                </mxCell>
                <mxCell id="215" value="" style="endArrow=classic;html=1;entryX=0;entryY=0.5;entryDx=0;entryDy=0;exitX=0.892;exitY=1.013;exitDx=0;exitDy=0;exitPerimeter=0;" edge="1" parent="1" source="40" target="214">
                    <mxGeometry width="50" height="50" relative="1" as="geometry">
                        <mxPoint x="-50" y="240" as="sourcePoint"/>
                        <mxPoint y="190" as="targetPoint"/>
                        <Array as="points">
                            <mxPoint x="-53" y="420"/>
                        </Array>
                    </mxGeometry>
                </mxCell>
                <mxCell id="221" value="hight: ;&lt;br style=&quot;border-color: var(--border-color);&quot;&gt;width: ;" style="whiteSpace=wrap;html=1;" vertex="1" parent="1">
                    <mxGeometry x="540" y="445" width="60" height="35" as="geometry"/>
                </mxCell>
                <mxCell id="225" value="&amp;lt;img&amp;gt;&amp;lt;/img&amp;gt;&lt;br&gt;object-fit:cover;&lt;br&gt;height: ;&lt;br&gt;width: ;" style="whiteSpace=wrap;html=1;" vertex="1" parent="1">
                    <mxGeometry x="-510" y="585" width="120" height="60" as="geometry"/>
                </mxCell>
                <mxCell id="226" value="width:100%;&lt;br&gt;height:450px;&lt;br&gt;padding:10px;&lt;br&gt;display: flex;" style="whiteSpace=wrap;html=1;" vertex="1" parent="1">
                    <mxGeometry x="-500" y="450" width="87" height="60" as="geometry"/>
                </mxCell>
                <mxCell id="228" value="width:100%;&lt;br&gt;height:450px;&lt;br&gt;" style="whiteSpace=wrap;html=1;" vertex="1" parent="1">
                    <mxGeometry x="-480" y="660" width="80" height="40" as="geometry"/>
                </mxCell>
                <mxCell id="232" value="" style="endArrow=classic;html=1;entryX=1;entryY=0.75;entryDx=0;entryDy=0;exitX=0.25;exitY=1;exitDx=0;exitDy=0;" edge="1" parent="1" source="52" target="228">
                    <mxGeometry width="50" height="50" relative="1" as="geometry">
                        <mxPoint x="-200" y="680" as="sourcePoint"/>
                        <mxPoint x="-150" y="630" as="targetPoint"/>
                        <Array as="points">
                            <mxPoint x="193" y="690"/>
                        </Array>
                    </mxGeometry>
                </mxCell>
                <mxCell id="235" value="" style="endArrow=classic;html=1;entryX=1;entryY=0.25;entryDx=0;entryDy=0;exitX=0.17;exitY=0.632;exitDx=0;exitDy=0;exitPerimeter=0;" edge="1" parent="1" source="50" target="225">
                    <mxGeometry width="50" height="50" relative="1" as="geometry">
                        <mxPoint x="-80" y="640" as="sourcePoint"/>
                        <mxPoint x="-30" y="590" as="targetPoint"/>
                    </mxGeometry>
                </mxCell>
                <mxCell id="237" value="" style="endArrow=classic;html=1;" edge="1" parent="1">
                    <mxGeometry width="50" height="50" relative="1" as="geometry">
                        <mxPoint x="400" y="580" as="sourcePoint"/>
                        <mxPoint x="500" y="300" as="targetPoint"/>
                        <Array as="points">
                            <mxPoint x="500" y="580"/>
                        </Array>
                    </mxGeometry>
                </mxCell>
                <mxCell id="249" style="edgeStyle=none;html=1;exitX=0;exitY=0.5;exitDx=0;exitDy=0;entryX=1;entryY=0.5;entryDx=0;entryDy=0;" edge="1" parent="1" source="238" target="248">
                    <mxGeometry relative="1" as="geometry"/>
                </mxCell>
                <mxCell id="238" value="" style="rounded=0;whiteSpace=wrap;html=1;fillColor=#fff2cc;strokeColor=#d6b656;" vertex="1" parent="1">
                    <mxGeometry x="-200" y="500" width="175" height="85" as="geometry"/>
                </mxCell>
                <mxCell id="53" value="&lt;h2 style=&quot;-webkit-box-orient: vertical; -webkit-line-clamp: 2; display: -webkit-box; font-weight: 600; line-height: 1; margin: 0px; overflow: hidden; text-overflow: ellipsis; word-break: break-word; font-size: 12px; font-family: &amp;quot;Camphor Pro VF&amp;quot;, &amp;quot;Camphor Pro&amp;quot;, sans-serif; font-style: normal; font-variant-ligatures: normal; font-variant-caps: normal; letter-spacing: normal; orphans: 2; text-align: center; text-indent: 0px; text-transform: none; widows: 2; word-spacing: 0px; -webkit-text-stroke-width: 0px; text-decoration-thickness: initial; text-decoration-style: initial; text-decoration-color: initial;&quot; class=&quot;site-goods__title&quot;&gt;Watch Out For&lt;br&gt;What's Coming Next&lt;/h2&gt;" style="rounded=0;whiteSpace=wrap;html=1;fontSize=28;strokeColor=#b85450;fillColor=#f8cecc;" parent="1" vertex="1">
                    <mxGeometry x="-180.75" y="515" width="135" height="30" as="geometry"/>
                </mxCell>
                <mxCell id="240" value="Stay Tuned" style="rounded=0;whiteSpace=wrap;html=1;labelBackgroundColor=#FFFFFF;strokeColor=#d6b656;fontSize=12;fillColor=#fff2cc;" vertex="1" parent="1">
                    <mxGeometry x="-153.75" y="555" width="65" height="20" as="geometry"/>
                </mxCell>
                <mxCell id="56" value="&amp;gt;" style="text;html=1;strokeColor=#d6b656;fillColor=#fff2cc;align=center;verticalAlign=middle;whiteSpace=wrap;rounded=0;labelBackgroundColor=#FFFFFF;fontSize=12;" parent="1" vertex="1">
                    <mxGeometry x="-77.5" y="555" width="10" height="20" as="geometry"/>
                </mxCell>
                <mxCell id="252" style="edgeStyle=none;html=1;exitX=0;exitY=0.25;exitDx=0;exitDy=0;entryX=1;entryY=0.5;entryDx=0;entryDy=0;" edge="1" parent="1" source="244" target="245">
                    <mxGeometry relative="1" as="geometry"/>
                </mxCell>
                <mxCell id="244" value="" style="rounded=0;whiteSpace=wrap;html=1;" vertex="1" parent="1">
                    <mxGeometry x="-215" y="710" width="170" height="110" as="geometry"/>
                </mxCell>
                <mxCell id="63" value="&lt;span style=&quot;font-weight: 700; line-height: 1.2; -webkit-box-orient: vertical; -webkit-line-clamp: 2; display: -webkit-box; overflow: hidden; text-overflow: ellipsis; word-break: break-word; font-family: &amp;quot;Camphor Pro VF&amp;quot;, &amp;quot;Camphor Pro&amp;quot;, sans-serif;&quot; class=&quot;site-event__title&quot;&gt;&lt;font style=&quot;font-size: 14px;&quot;&gt;Student Plus&lt;/font&gt;&lt;/span&gt;" style="rounded=0;whiteSpace=wrap;html=1;labelBackgroundColor=#FFFFFF;strokeColor=#b85450;fontSize=16;fillColor=#f8cecc;" parent="1" vertex="1">
                    <mxGeometry x="-187.5" y="720" width="115" height="30" as="geometry"/>
                </mxCell>
                <mxCell id="64" value="Something text&amp;nbsp;" style="rounded=0;whiteSpace=wrap;html=1;labelBackgroundColor=none;strokeColor=#d6b656;fontSize=14;fillColor=#fff2cc;" parent="1" vertex="1">
                    <mxGeometry x="-200" y="760" width="140" height="20" as="geometry"/>
                </mxCell>
                <mxCell id="65" value="Stay Tuned" style="rounded=0;whiteSpace=wrap;html=1;labelBackgroundColor=#FFFFFF;strokeColor=#d6b656;fontSize=12;fillColor=#fff2cc;" parent="1" vertex="1">
                    <mxGeometry x="-169.25" y="790" width="65" height="20" as="geometry"/>
                </mxCell>
                <mxCell id="66" value="&amp;gt;" style="text;html=1;strokeColor=#d6b656;fillColor=#fff2cc;align=center;verticalAlign=middle;whiteSpace=wrap;rounded=0;labelBackgroundColor=#FFFFFF;fontSize=12;" parent="1" vertex="1">
                    <mxGeometry x="-96.75" y="790" width="10" height="20" as="geometry"/>
                </mxCell>
                <mxCell id="245" value="height: ;&lt;br&gt;width: ;&lt;br&gt;amrgin: ;" style="whiteSpace=wrap;html=1;" vertex="1" parent="1">
                    <mxGeometry x="-470" y="715" width="60" height="50" as="geometry"/>
                </mxCell>
                <mxCell id="251" style="edgeStyle=none;html=1;exitX=1;exitY=0.5;exitDx=0;exitDy=0;entryX=0;entryY=0.75;entryDx=0;entryDy=0;" edge="1" parent="1" source="247" target="250">
                    <mxGeometry relative="1" as="geometry"/>
                </mxCell>
                <mxCell id="247" value="" style="rounded=0;whiteSpace=wrap;html=1;fillColor=#fff2cc;strokeColor=#d6b656;" vertex="1" parent="1">
                    <mxGeometry x="227.5" y="525" width="120" height="60" as="geometry"/>
                </mxCell>
                <mxCell id="57" value="Buy Now" style="rounded=0;whiteSpace=wrap;html=1;labelBackgroundColor=#FFFFFF;strokeColor=#82b366;fontSize=12;fillColor=#d5e8d4;" parent="1" vertex="1">
                    <mxGeometry x="237.5" y="545" width="52.5" height="20" as="geometry"/>
                </mxCell>
                <mxCell id="58" value="&amp;gt;" style="text;html=1;strokeColor=#9673a6;fillColor=#e1d5e7;align=center;verticalAlign=middle;whiteSpace=wrap;rounded=0;labelBackgroundColor=#FFFFFF;fontSize=12;" parent="1" vertex="1">
                    <mxGeometry x="300" y="540" width="35" height="30" as="geometry"/>
                </mxCell>
                <mxCell id="248" value="width:;&lt;br&gt;heigh&lt;span style=&quot;color: rgba(0, 0, 0, 0); font-family: monospace; font-size: 0px; text-align: start;&quot;&gt;%3CmxGraphModel%3E%3Croot%3E%3CmxCell%20id%3D%220%22%2F%3E%3CmxCell%20id%3D%221%22%20parent%3D%220%22%2F%3E%3CmxCell%20id%3D%222%22%20value%3D%22width%3A100%25%3B%26lt%3Bbr%26gt%3Bheight%3A450px%3B%26lt%3Bbr%26gt%3Bpadding%3A10px%3B%26lt%3Bbr%26gt%3Bdisplay%3A%20flex%3B%22%20style%3D%22whiteSpace%3Dwrap%3Bhtml%3D1%3B%22%20vertex%3D%221%22%20parent%3D%221%22%3E%3CmxGeometry%20x%3D%22-500%22%20y%3D%22450%22%20width%3D%2287%22%20height%3D%2260%22%20as%3D%22geometry%22%2F%3E%3C%2FmxCell%3E%3C%2Froot%3E%3C%2FmxGraphModel%3E&lt;/span&gt;t:;&lt;br&gt;padding:10px;&lt;br&gt;margin:auto;" style="whiteSpace=wrap;html=1;" vertex="1" parent="1">
                    <mxGeometry x="-500" y="515" width="87" height="60" as="geometry"/>
                </mxCell>
                <mxCell id="250" value="width:;&lt;br&gt;heigh&lt;span style=&quot;color: rgba(0, 0, 0, 0); font-family: monospace; font-size: 0px; text-align: start;&quot;&gt;%3CmxGraphModel%3E%3Croot%3E%3CmxCell%20id%3D%220%22%2F%3E%3CmxCell%20id%3D%221%22%20parent%3D%220%22%2F%3E%3CmxCell%20id%3D%222%22%20value%3D%22width%3A100%25%3B%26lt%3Bbr%26gt%3Bheight%3A450px%3B%26lt%3Bbr%26gt%3Bpadding%3A10px%3B%26lt%3Bbr%26gt%3Bdisplay%3A%20flex%3B%22%20style%3D%22whiteSpace%3Dwrap%3Bhtml%3D1%3B%22%20vertex%3D%221%22%20parent%3D%221%22%3E%3CmxGeometry%20x%3D%22-500%22%20y%3D%22450%22%20width%3D%2287%22%20height%3D%2260%22%20as%3D%22geometry%22%2F%3E%3C%2FmxCell%3E%3C%2Froot%3E%3C%2FmxGraphModel%3E&lt;/span&gt;t:;&lt;br&gt;padding:10px;&lt;br&gt;margin:auto;" style="whiteSpace=wrap;html=1;" vertex="1" parent="1">
                    <mxGeometry x="540" y="495" width="87" height="60" as="geometry"/>
                </mxCell>
            </root>
        </mxGraphModel>
    </diagram>
</mxfile>